<svg width="24" height="27" viewBox="0 0 24 27" fill="none" xmlns="http://www.w3.org/2000/svg">
<path fill-rule="evenodd" clip-rule="evenodd" d="M22.088 0.666205C22.088 0.349841 21.8298 0.204818 21.7542 0.166834C21.6444 0.11163 21.5186 0.0796146 21.4096 0.0588818C21.1833 0.015824 20.9018 -0.00140328 20.6355 8.87465e-05C20.3688 0.00158318 20.089 0.0220291 19.8649 0.0654918C19.7569 0.0864347 19.6342 0.117792 19.5276 0.169526C19.4747 0.195181 19.4012 0.237438 19.3354 0.306087C19.2657 0.378928 19.1881 0.501104 19.1881 0.666173V1.43675C19.0815 1.41535 18.9655 1.38875 18.8401 1.35727C18.5607 1.28719 18.2583 1.19952 17.9321 1.10495C17.8333 1.07632 17.7324 1.04706 17.6292 1.01746C16.7643 0.769252 15.7573 0.500002 14.8426 0.5C13.4349 0.499997 12.51 0.630021 11.3421 1.02356C10.4834 1.3129 9.48438 1.74849 8.05435 2.37204L8.05433 2.37204C7.59228 2.57352 7.08522 2.79461 6.52335 3.03674C5.83021 3.33543 5.49302 4.1739 5.80513 4.83878C5.97029 5.19063 6.29673 5.44544 6.74175 5.54396C7.17375 5.63959 7.7087 5.58857 8.34368 5.3769L8.62998 5.28139C9.65159 4.94043 10.5132 4.65288 11.3323 4.42991C11.3383 4.46584 11.3448 4.50432 11.3524 4.54619C11.386 4.73056 11.4384 4.95903 11.5608 5.17331C11.8405 5.6626 12.3694 5.9 13.2014 5.9C13.6245 5.9 14.0156 5.93706 14.3442 6.01021C14.6784 6.08457 14.9182 6.18968 15.0658 6.30479C15.7139 6.81041 16.5378 7.4 17.7017 7.4C17.8656 7.4 18.385 7.33697 18.8463 7.24524C18.9597 7.2227 19.076 7.19721 19.1881 7.16876V7.23898C19.1881 7.55988 19.4545 7.70299 19.5257 7.73794C19.6348 7.79153 19.7599 7.82261 19.8684 7.84276C20.0939 7.88463 20.3747 7.9014 20.6405 7.89991C20.9068 7.89842 21.186 7.87845 21.4092 7.83617C21.5168 7.8158 21.6387 7.78537 21.7446 7.73522C21.7969 7.71045 21.8706 7.6693 21.9367 7.60186C22.0067 7.53053 22.088 7.4076 22.088 7.23903V0.666205ZM19.1881 2.35184V6.23169C19.059 6.27644 18.8768 6.32155 18.6708 6.36252C18.4551 6.40541 18.2304 6.44043 18.0456 6.46464C17.9533 6.47673 17.8728 6.48589 17.8098 6.49194C17.7783 6.49497 17.7524 6.4971 17.7324 6.49843L17.7195 6.49923L17.709 6.49976C17.703 6.50001 17.7009 6.5 17.7017 6.5C16.8657 6.5 16.2531 6.08958 15.6194 5.59521C15.3259 5.36621 14.9424 5.22131 14.5398 5.1317C14.1317 5.04088 13.6726 5 13.2014 5C12.5337 5 12.3959 4.82073 12.3422 4.72669C12.298 4.64929 12.2669 4.54444 12.2379 4.38505C12.2309 4.34674 12.2234 4.30011 12.2152 4.24873L12.2151 4.24869L12.2151 4.24865L12.2151 4.24864L12.2095 4.21396C12.8845 4.06718 13.5594 3.96876 14.304 3.92533C14.5037 3.91703 14.6855 3.91143 14.8347 3.90767C14.9873 3.90381 15.1051 3.90189 15.1723 3.90093L15.2363 3.90004L15.2445 3.89984L15.2504 3.89961L15.2674 3.89852C15.2835 3.89688 15.5284 3.78701 15.6631 3.57292C15.6093 3.2076 15.2818 3.00302 15.2632 3.00127L15.245 3.00029L15.2389 3.00013L15.2336 3.00005L15.2281 3.00002L15.2014 3C14.8778 2.99999 14.5683 3.00884 14.2694 3.02599C14.0522 3.035 13.8136 3.04714 13.5712 3.06352C13.1042 3.09508 12.6063 3.14339 12.2183 3.21931C12.0282 3.25649 11.8368 3.30538 11.683 3.37489C11.6443 3.39236 11.6011 3.41415 11.5573 3.44161C10.5686 3.68521 9.5694 4.01884 8.38269 4.41509L8.05907 4.52309C7.51468 4.70456 7.15431 4.7135 6.93628 4.66523C6.73126 4.61984 6.65294 4.52687 6.61983 4.45634C6.5354 4.27648 6.62761 3.97182 6.87953 3.86326C7.46119 3.61261 7.97983 3.3865 8.44756 3.18258L8.44759 3.18256L8.44762 3.18255C9.86177 2.56602 10.8106 2.15235 11.6294 1.87644C12.6874 1.51997 13.5124 1.4 14.8426 1.4C15.6128 1.4 16.5036 1.63075 17.381 1.88254C17.4776 1.91025 17.5742 1.93828 17.6704 1.96618C18 2.06174 18.3242 2.15576 18.6211 2.23023C18.813 2.27836 19.0041 2.32122 19.1881 2.35184ZM20.0881 6.32544V6.96714C20.2338 6.98906 20.4288 7.00108 20.6355 6.99992C20.8429 6.99876 21.0402 6.98446 21.188 6.96117V0.933852C21.0428 0.911335 20.8477 0.898914 20.6406 0.900075C20.4327 0.901239 20.2354 0.915947 20.0881 0.939838V2.17816C20.0939 2.16816 20.0982 2.1598 20.1012 2.15374C20.1223 2.11154 20.1308 2.07656 20.1326 2.0691L20.1327 2.06864C20.1364 2.0539 20.1377 2.04411 20.1377 2.04405C20.1377 2.04403 20.1375 2.04526 20.1372 2.04794C20.1354 2.06281 20.1328 2.09453 20.1298 2.14756C20.1242 2.25054 20.1191 2.40294 20.1147 2.59329C20.1058 2.97241 20.0999 3.48513 20.096 4.01586C20.089 4.95046 20.0882 5.93387 20.0881 6.32544ZM15.2249 3.90001L15.2301 3.90005C15.2305 3.90007 15.2285 3.90007 15.2248 3.90001H15.2249ZM0.68821 26.2338C0.688194 26.5502 0.946455 26.6952 1.02201 26.7332C1.13181 26.7884 1.25761 26.8204 1.3666 26.8411C1.59295 26.8842 1.87446 26.9014 2.1407 26.8999C2.40738 26.8984 2.68727 26.878 2.91135 26.8345C3.01933 26.8136 3.14201 26.7822 3.24865 26.7305C3.30153 26.7048 3.37507 26.6626 3.44078 26.5939C3.5105 26.5211 3.58816 26.3989 3.58817 26.2338V25.4632C3.69473 25.4846 3.81069 25.5112 3.93616 25.5427C4.21553 25.6128 4.51796 25.7005 4.84416 25.795C4.94292 25.8237 5.04385 25.8529 5.14698 25.8825C6.0119 26.1307 7.01888 26.4 7.93362 26.4C9.34128 26.4 10.2662 26.27 11.4342 25.8764C12.2929 25.5871 13.2919 25.1515 14.7219 24.5279L14.7222 24.5278L14.7244 24.5269C15.1858 24.3257 15.692 24.1049 16.2529 23.8633C16.946 23.5646 17.2832 22.7261 16.9711 22.0612C16.8059 21.7094 16.4795 21.4546 16.0345 21.356C15.6025 21.2604 15.0675 21.3114 14.4326 21.5231L14.1462 21.6186C13.1246 21.9596 12.263 22.2471 11.4439 22.4701C11.438 22.4342 11.4314 22.3957 11.4238 22.3538C11.3902 22.1694 11.3379 21.941 11.2154 21.7267C10.9357 21.2374 10.4068 21 9.57485 21C9.15169 21 8.76066 20.9629 8.43199 20.8898C8.09787 20.8154 7.85798 20.7103 7.71043 20.5952C7.06235 20.0896 6.2384 19.5 5.07449 19.5C4.91062 19.5 4.39126 19.563 3.92993 19.6547C3.81654 19.6773 3.70023 19.7028 3.58817 19.7312V19.661C3.58815 19.3401 3.32173 19.197 3.25056 19.1621C3.14142 19.1085 3.01637 19.0774 2.90782 19.0572C2.6823 19.0154 2.40151 18.9986 2.13568 19.0001C1.86941 19.0016 1.59023 19.0215 1.36698 19.0638C1.25943 19.0842 1.13753 19.1146 1.03161 19.1648C0.979277 19.1895 0.905674 19.2307 0.839491 19.2981C0.769493 19.3695 0.688238 19.4924 0.68821 19.661V26.2338ZM3.58817 24.5482V20.6683C3.71724 20.6236 3.89939 20.5784 4.10544 20.5375C4.32116 20.4946 4.54582 20.4596 4.73067 20.4354C4.82292 20.4233 4.90347 20.4141 4.96645 20.4081C4.99796 20.405 5.02384 20.4029 5.04381 20.4016L5.05678 20.4008L5.0672 20.4002C5.07237 20.4 5.07467 20.4 5.07467 20.4H5.07449C5.91058 20.4 6.52315 20.8104 7.15682 21.3048C7.45033 21.5338 7.83384 21.6787 8.23646 21.7683C8.64454 21.8591 9.10359 21.9 9.57485 21.9C10.2426 21.9 10.3803 22.0793 10.434 22.1733C10.4783 22.2507 10.5093 22.3556 10.5383 22.5149C10.5453 22.5533 10.5528 22.5999 10.5611 22.6514L10.5667 22.686C9.89177 22.8328 9.21682 22.9312 8.47224 22.9747C8.2725 22.983 8.09072 22.9886 7.94156 22.9923C7.78895 22.9962 7.67114 22.9981 7.60395 22.9991L7.53989 23L7.53174 23.0002L7.52583 23.0004L7.50883 23.0015C7.49269 23.0031 7.24779 23.113 7.11315 23.3271C7.16695 23.6924 7.49445 23.897 7.51299 23.8987L7.53119 23.8997L7.53733 23.8999L7.54267 23.8999L7.54811 23.9L7.57485 23.9C7.89842 23.9 8.20791 23.8912 8.50679 23.874C8.72398 23.865 8.96262 23.8529 9.20505 23.8365C9.67202 23.8049 10.1699 23.7566 10.558 23.6807C10.748 23.6435 10.9395 23.5946 11.0933 23.5251C11.1319 23.5076 11.1751 23.4858 11.2189 23.4584C12.2076 23.2148 13.2068 22.8812 14.3935 22.4849L14.7172 22.3769C15.2616 22.1954 15.6219 22.1865 15.8399 22.2348C16.045 22.2801 16.1233 22.3731 16.1564 22.4436C16.2408 22.6235 16.1486 22.9282 15.8967 23.0367C15.315 23.2874 14.7964 23.5135 14.3286 23.7174L14.3286 23.7174C12.9145 24.334 11.9656 24.7476 11.1468 25.0236C10.0889 25.38 9.2638 25.5 7.93362 25.5C7.16339 25.5 6.27265 25.2692 5.39524 25.0175C5.2993 24.9899 5.20327 24.9621 5.10768 24.9344L5.10581 24.9338L5.10577 24.9338L5.10573 24.9338C4.77618 24.8382 4.45196 24.7442 4.15514 24.6698C3.96325 24.6216 3.77215 24.5788 3.58817 24.5482ZM2.68817 20.5746V19.9329C2.54245 19.9109 2.34741 19.8989 2.14072 19.9001C1.93329 19.9012 1.73604 19.9155 1.58821 19.9388V25.9661C1.73339 25.9887 1.92853 26.0011 2.13566 25.9999C2.3435 25.9988 2.54086 25.984 2.68817 25.9602V24.7218C2.68235 24.7318 2.67803 24.7402 2.67501 24.7463C2.65397 24.7885 2.64542 24.8234 2.6436 24.8309L2.64349 24.8314C2.64088 24.842 2.63945 24.85 2.63886 24.8537C2.63892 24.8532 2.63899 24.8527 2.63906 24.8521C2.64082 24.8372 2.64347 24.8055 2.64639 24.7524C2.65205 24.6495 2.65712 24.4971 2.66156 24.3067C2.67038 23.9276 2.67631 23.4149 2.68027 22.8841C2.68724 21.9495 2.68807 20.9661 2.68817 20.5746ZM2.63855 24.8559C2.63854 24.8559 2.63863 24.8551 2.63886 24.8537L2.63855 24.8559ZM7.55128 23L7.54631 22.9999C7.54533 22.9999 7.54745 22.9999 7.55138 23H7.55128ZM3.87564 6.50691C3.81121 6.33278 3.56494 6.33278 3.5005 6.50691L2.90972 8.10348C2.88946 8.15823 2.8463 8.20139 2.79155 8.22165L1.19498 8.81243C1.02085 8.87687 1.02085 9.12314 1.19498 9.18757L2.79155 9.77836C2.8463 9.79862 2.88946 9.84178 2.90972 9.89652L3.5005 11.4931C3.56494 11.6672 3.81121 11.6672 3.87564 11.4931L4.46643 9.89652C4.48669 9.84178 4.52985 9.79862 4.58459 9.77836L6.18117 9.18757C6.3553 9.12314 6.3553 8.87686 6.18117 8.81243L4.58459 8.22165C4.52985 8.20139 4.48669 8.15823 4.46643 8.10348L3.87564 6.50691ZM20.8756 15.5069C20.8112 15.3328 20.5649 15.3328 20.5005 15.5069L19.9097 17.1035C19.8895 17.1582 19.8463 17.2014 19.7916 17.2216L18.195 17.8124C18.0209 17.8769 18.0209 18.1231 18.195 18.1876L19.7916 18.7784C19.8463 18.7986 19.8895 18.8418 19.9097 18.8965L20.5005 20.4931C20.5649 20.6672 20.8112 20.6672 20.8756 20.4931L21.4664 18.8965C21.4867 18.8418 21.5299 18.7986 21.5846 18.7784L23.1812 18.1876C23.3553 18.1231 23.3553 17.8769 23.1812 17.8124L21.5846 17.2216C21.5299 17.2014 21.4867 17.1582 21.4664 17.1035L20.8756 15.5069ZM12.0115 8C10.5233 8 9.34004 8.47648 8.46837 9.2513C7.60259 10.0209 7.07271 11.0589 6.83552 12.1432C6.41441 14.0683 6.89656 16.2894 8.26614 17.5479C8.17215 17.7678 8.1365 18.0227 8.13651 18.25C8.13651 18.4831 8.17401 18.7451 8.27343 18.9688C8.36534 19.1755 8.58859 19.5 9.01165 19.5H9.01167H15.0117C15.4348 19.5 15.658 19.1752 15.7498 18.9686C15.8491 18.745 15.8865 18.4831 15.8865 18.25C15.8865 18.0239 15.8513 17.7706 15.7585 17.5516C17.1433 16.3135 17.8465 14.1177 17.53 12.1698C17.3516 11.0722 16.8459 10.0195 15.9244 9.2427C15.0013 8.46463 13.7047 8 12.0115 8ZM14.8537 17L9.17017 17C7.97593 16.107 7.41636 14.1675 7.81242 12.3568C8.01273 11.4411 8.45162 10.6041 9.13273 9.99871C9.80795 9.39852 10.7497 9 12.0115 9C13.5183 9 14.5717 9.41038 15.2799 10.0073C15.9896 10.6055 16.3963 11.4278 16.5429 12.3302C16.8332 14.1162 16.0908 16.0862 14.8537 17ZM14.8572 18.5H9.16589C9.14927 18.4378 9.13651 18.3513 9.13651 18.25C9.13651 18.1487 9.14926 18.0622 9.16587 18L14.8572 18C14.8738 18.0622 14.8865 18.1488 14.8865 18.25C14.8865 18.3513 14.8738 18.4378 14.8572 18.5ZM12.0114 9.5C11.1613 9.5 10.1703 9.78075 9.38226 10.4255C8.5786 11.0831 8.01138 12.1002 8.01138 13.5C8.01138 13.7761 8.23524 14 8.51138 14C8.78752 14 9.01138 13.7761 9.01138 13.5C9.01138 12.3999 9.44416 11.6669 10.0155 11.1995C10.6024 10.7193 11.3614 10.5 12.0114 10.5C12.2875 10.5 12.5114 10.2761 12.5114 10C12.5114 9.72386 12.2875 9.5 12.0114 9.5Z" fill="#EBEBEB"/>
</svg>
